<svg width="49" height="31" viewBox="0 0 49 31" fill="none" xmlns="http://www.w3.org/2000/svg">
<path d="M34.9528 22.3521V23.8824H31.3566L31.2295 25.4561C32.5568 25.4301 34.1556 25.4713 35.0131 26.6488C35.5152 27.3393 35.554 28.4411 35.1941 29.2031C34.1469 31.4239 30.4172 31.1361 28.6891 29.9347L29.4346 28.4736C29.8914 28.742 30.3741 29.0104 30.8977 29.1251C31.5247 29.2615 32.546 29.3199 33.0696 28.8978C33.6751 28.4108 33.4854 27.4735 32.7809 27.19C32.6386 27.1337 32.1926 27.0276 32.0547 27.0276H29.2838L29.7492 22.3521H34.9528Z" fill="#006633"/>
<path d="M42.964 0.305664C43.8625 0.396578 45.2092 0.900933 45.9849 1.37498C49.8138 3.71277 49.4195 9.84079 45.3773 11.724L48.995 17.2936H44.8623L41.7746 12.4253H38.4025L38.2603 12.5682V17.2914H34.4615V0.305664H42.964ZM38.2624 9.27582H42.3003C42.3607 9.27582 43.1084 9.01823 43.2247 8.96412C45.2027 8.04632 45.3277 4.87733 43.3626 3.91407C43.1838 3.82749 42.3542 3.55042 42.2055 3.55042H38.2624V9.27582Z" fill="#E94E1B"/>
<path d="M14.3108 29.4286L17.8596 26.1947C19.9432 24.056 16.7069 22.872 15.4701 24.6903L14.1018 23.8136C14.0652 23.6859 14.4811 23.253 14.5845 23.1599C16.3901 21.5408 20.6952 21.9174 20.4862 24.9673C20.372 26.6254 18.1613 27.9826 17.1033 29.0909C17.0925 29.2208 17.1486 29.1126 17.1658 29.1126H20.6758C20.7361 29.1494 20.734 29.197 20.7405 29.2598C20.7965 29.7295 20.6478 30.2512 20.6952 30.7274H14.3087V29.4308L14.3108 29.4286Z" fill="#006633"/>
<path d="M21.6282 30.7249C21.5226 30.5084 21.6303 30.3049 21.6325 30.108C21.6325 29.9348 21.6196 29.8266 21.6282 29.6404C21.6325 29.5495 21.5528 29.4586 21.6519 29.3677L25.3946 25.9021C26.9654 23.7613 23.7786 23.0838 22.7443 24.6878L21.3782 23.8133C21.3567 23.7418 21.7014 23.3197 21.7768 23.244C23.5609 21.4409 28.1311 21.9322 27.7604 25.1315C27.5838 26.6576 25.3601 28.0364 24.3819 29.0884C24.3711 29.2183 24.4271 29.1101 24.4444 29.1101H28.019V30.7249H21.6325H21.6282Z" fill="#006633"/>
<path d="M7.56013 0.0480868C10.3397 -0.22249 13.3692 0.632532 14.9938 3.0266L12.6625 5.45962C11.7079 4.40762 10.7168 3.57208 9.2408 3.45952C2.12814 2.9162 1.90405 14.7155 9.34207 14.1505C10.7922 14.0401 11.807 13.2869 12.6625 12.1613L15.0693 14.4796C11.7187 19.0815 4.43797 18.4625 1.42571 13.7934C-2.01319 8.46194 1.0551 0.682319 7.56229 0.0480868H7.56013Z" fill="#E94E1B"/>
<path d="M15.4636 17.2937L22.3155 0.318848L26.2931 0.353481L27.7173 3.7411C26.9977 3.81686 26.2737 4.05064 25.623 4.35802C25.3752 4.47491 24.9485 4.84938 24.7245 4.88835C24.44 4.93813 24.5973 4.06363 24.2461 4.31256L21.9212 10.709H25.3881C25.5626 10.709 26.7649 11.5683 27.3122 11.6441C27.7367 11.7026 27.9974 11.3887 28.0922 11.4233C28.3702 11.5229 29.0834 12.3043 29.217 12.5857C29.7686 13.7416 29.1222 15.7201 29.3269 17.008L27.9371 13.7763L20.6822 13.8109C20.178 14.917 19.6092 16.1075 19.3528 17.2959H15.4571L15.4636 17.2937Z" fill="#E94E1B"/>
<path d="M33.0114 18.6031C33.1881 18.4256 33.201 17.8931 33.3174 17.813L33.8927 17.7719C33.6966 20.7331 30.805 20.0361 30.1608 17.655C29.6889 15.9103 30.4926 13.9622 29.9475 12.5227C29.4152 11.1135 27.5579 10.9902 27.9048 9.18054C27.2929 9.61996 27.5859 10.5421 27.6204 11.185C26.0388 11.0378 24.7632 9.49874 24.3625 8.01598C23.5717 5.10024 25.623 5.19982 27.81 4.97903L27.336 4.50281C29.1373 4.31882 30.1522 4.96171 31.0226 6.47694C31.794 7.819 32.2142 11.5789 32.0849 13.1375C31.975 14.4579 30.6801 17.6485 31.9944 18.575C32.2896 18.7828 32.7249 18.8867 33.0093 18.5988L33.0114 18.6031ZM30.0681 8.25192C29.8807 8.06793 29.3075 8.11772 29.4389 8.45107C29.5467 8.72381 30.0186 8.81256 30.2814 8.79741C30.3224 8.75844 30.1241 8.30604 30.0681 8.24976V8.25192Z" fill="#E94E1B"/>
<path d="M33.2269 17.2933L32.0784 17.2371C31.8888 16.9795 32.3197 15.5097 32.2788 15.1006L33.2269 17.2955V17.2933Z" fill="#E94E1B"/>
<path d="M30.0681 8.25202C30.1241 8.30614 30.3224 8.76071 30.2814 8.79967C30.0207 8.81266 29.5467 8.72391 29.4389 8.45333C29.3075 8.11998 29.8807 8.07019 30.0681 8.25419V8.25202Z" fill="white"/>
</svg>
