<svg width="40" height="42" viewBox="0 0 40 42" fill="none" xmlns="http://www.w3.org/2000/svg">
<path d="M0.0138624 36.9953L14.7086 0L23.2389 0.0754812L26.2933 7.4585C24.7499 7.62361 23.1973 8.13311 21.8018 8.80301C21.2703 9.05776 20.3554 9.8739 19.8748 9.95881C19.2648 10.0673 19.6022 8.16142 18.849 8.70394L13.8629 22.6444H21.2981C21.6724 22.6444 24.2509 24.5173 25.4246 24.6824C26.3349 24.8098 26.8941 24.1257 27.0974 24.2012C27.6935 24.4182 29.223 26.1213 29.5095 26.7345C30.6925 29.2537 29.3062 33.5656 29.7452 36.3726L26.7647 29.3292L11.2059 29.4047C10.1246 31.8154 8.90462 34.41 8.35472 37H0L0.0138624 36.9953Z" fill="#E94E1B"/>
<path d="M38.0928 39.5661C38.4751 39.1822 38.5031 38.0303 38.7549 37.8571L40 37.7681C39.5756 44.1734 33.3177 42.6657 31.9234 37.5153C30.9021 33.7414 32.6415 29.5275 31.4617 26.4138C30.3099 23.3657 26.2902 23.0988 27.041 19.1845C25.7167 20.135 26.3508 22.1296 26.4255 23.5202C23.0027 23.2018 20.2421 19.8728 19.3747 16.6655C17.6633 10.3586 22.1027 10.574 26.8358 10.0964L25.8099 9.06628C29.7083 8.6683 31.9047 10.0589 33.7886 13.3364C35.4581 16.2394 36.3674 24.3724 36.0876 27.7436C35.8498 30.5997 33.0472 37.5012 35.8917 39.5052C36.5306 39.9547 37.4726 40.1795 38.0881 39.5567L38.0928 39.5661ZM31.7228 17.1758C31.3171 16.7779 30.0767 16.8855 30.3612 17.6066C30.5943 18.1966 31.6156 18.3885 32.1845 18.3558C32.2731 18.2715 31.8441 17.2929 31.7228 17.1712V17.1758Z" fill="#E94E1B"/>
<path d="M38 36.9951L36.081 36.8669C35.7641 36.2801 36.4842 32.932 36.4158 32L38 37V36.9951Z" fill="#E94E1B"/>
</svg>
