<svg width="49" height="42" viewBox="0 0 49 42" fill="none" xmlns="http://www.w3.org/2000/svg">
<g clip-path="url(#clip0_228_121)">
<path d="M45.3708 7.36617C46.181 8.08049 47.5944 9.51346 48.2452 10.3555C48.3378 10.4746 48.3917 10.6153 48.493 10.7256C48.5856 11.0265 47.4652 10.0568 47.3747 9.99401C35.9914 2.12131 20.456 1.39183 8.12468 7.53717L3.28738 10.5395C3.10423 10.3663 6.3449 7.24062 6.67888 6.95489C17.726 -2.54777 34.4939 -2.21874 45.3708 7.36617Z" fill="#E94E1B"/>
<path d="M34.9528 33.4951V35.0255H31.3566L31.2295 36.5992C32.5568 36.5732 34.1556 36.6143 35.0131 37.7919C35.5152 38.4824 35.554 39.5842 35.1941 40.3461C34.1469 42.567 30.4172 42.2791 28.6891 41.0778L29.4346 39.6166C29.8914 39.8851 30.3741 40.1535 30.8977 40.2682C31.5247 40.4046 32.546 40.463 33.0696 40.0409C33.6751 39.5539 33.4854 38.6166 32.7809 38.333C32.6386 38.2767 32.1926 38.1707 32.0547 38.1707H29.2838L29.7492 33.4951H34.9528Z" fill="#006633"/>
<path d="M42.964 11.4487C43.8625 11.5396 45.2092 12.044 45.9849 12.5181C49.8138 14.8558 49.4195 20.9839 45.3773 22.8671L48.995 28.4366H44.8623L41.7746 23.5684H38.4025L38.2603 23.7113V28.4345H34.4615V11.4487H42.964ZM38.2624 20.4189H42.3003C42.3607 20.4189 43.1084 20.1613 43.2247 20.1072C45.2027 19.1894 45.3277 16.0204 43.3626 15.0571C43.1838 14.9706 42.3542 14.6935 42.2055 14.6935H38.2624V20.4189Z" fill="#E94E1B"/>
<path d="M14.3108 40.5717L17.8596 37.3377C19.9432 35.1991 16.7069 34.0151 15.4701 35.8333L14.1018 34.9567C14.0652 34.829 14.4811 34.396 14.5845 34.303C16.3901 32.6838 20.6952 33.0605 20.4862 36.1104C20.372 37.7685 18.1613 39.1257 17.1033 40.234C17.0925 40.3639 17.1486 40.2556 17.1658 40.2556H20.6758C20.7361 40.2924 20.734 40.3401 20.7405 40.4028C20.7965 40.8726 20.6478 41.3942 20.6952 41.8704H14.3087V40.5738L14.3108 40.5717Z" fill="#006633"/>
<path d="M21.6282 41.8679C21.5226 41.6515 21.6303 41.448 21.6325 41.251C21.6325 41.0779 21.6196 40.9696 21.6282 40.7835C21.6325 40.6926 21.5528 40.6016 21.6519 40.5107L25.3946 37.0452C26.9654 34.9044 23.7786 34.2269 22.7443 35.8308L21.3782 34.9563C21.3567 34.8849 21.7014 34.4628 21.7768 34.387C23.5609 32.5839 28.1311 33.0753 27.7604 36.2746C27.5838 37.8006 25.3601 39.1795 24.3819 40.2315C24.3711 40.3614 24.4271 40.2531 24.4444 40.2531H28.019V41.8679H21.6325H21.6282Z" fill="#006633"/>
<path d="M7.56013 11.1912C10.3397 10.9206 13.3692 11.7756 14.9938 14.1697L12.6625 16.6027C11.7079 15.5507 10.7168 14.7151 9.2408 14.6026C2.12814 14.0593 1.90405 25.8586 9.34207 25.2936C10.7922 25.1832 11.807 24.4299 12.6625 23.3043L15.0693 25.6226C11.7187 30.2246 4.43797 29.6055 1.42571 24.9365C-2.01319 19.605 1.0551 11.8254 7.56229 11.1912H7.56013Z" fill="#E94E1B"/>
<path d="M15.4636 28.4368L22.3155 11.4619L26.2931 11.4965L27.7173 14.8842C26.9977 14.9599 26.2737 15.1937 25.623 15.5011C25.3752 15.618 24.9485 15.9924 24.7245 16.0314C24.44 16.0812 24.5973 15.2067 24.2461 15.4556L21.9212 21.8521H25.3881C25.5626 21.8521 26.7649 22.7114 27.3122 22.7872C27.7367 22.8456 27.9974 22.5317 28.0922 22.5664C28.3702 22.666 29.0834 23.4474 29.217 23.7288C29.7686 24.8847 29.1222 26.8631 29.3269 28.1511L27.9371 24.9193L20.6822 24.954C20.178 26.0601 19.6092 27.2506 19.3528 28.439H15.4571L15.4636 28.4368Z" fill="#E94E1B"/>
<path d="M33.0114 29.7462C33.1881 29.5687 33.201 29.0362 33.3174 28.9561L33.8927 28.915C33.6966 31.8762 30.805 31.1791 30.1608 28.7981C29.6889 27.0534 30.4926 25.1052 29.9475 23.6658C29.4152 22.2566 27.5579 22.1332 27.9048 20.3236C27.2929 20.763 27.5859 21.6852 27.6204 22.328C26.0388 22.1808 24.7632 20.6418 24.3625 19.159C23.5717 16.2433 25.623 16.3429 27.81 16.1221L27.336 15.6459C29.1373 15.4619 30.1522 16.1048 31.0226 17.62C31.794 18.9621 32.2142 22.722 32.0849 24.2805C31.975 25.6009 30.6801 28.7916 31.9944 29.718C32.2896 29.9258 32.7249 30.0297 33.0093 29.7418L33.0114 29.7462ZM30.0681 19.395C29.8807 19.211 29.3075 19.2608 29.4389 19.5941C29.5467 19.8669 30.0186 19.9556 30.2814 19.9405C30.3224 19.9015 30.1241 19.4491 30.0681 19.3928V19.395Z" fill="#E94E1B"/>
<path d="M33.2269 28.4364L32.0784 28.3801C31.8888 28.1225 32.3197 26.6528 32.2788 26.2437L33.2269 28.4386V28.4364Z" fill="#E94E1B"/>
<path d="M30.0681 19.3951C30.1241 19.4492 30.3224 19.9038 30.2814 19.9427C30.0207 19.9557 29.5467 19.867 29.4389 19.5964C29.3075 19.263 29.8807 19.2133 30.0681 19.3973V19.3951Z" fill="white"/>
</g>
<defs>
<clipPath id="clip0_228_121">
<rect width="49" height="42" fill="white"/>
</clipPath>
</defs>
</svg>
